<?xml version="1.0" standalone="no"?>
<!DOCTYPE svg PUBLIC "-//W3C//DTD SVG 20010904//EN"
 "http://www.w3.org/TR/2001/REC-SVG-20010904/DTD/svg10.dtd">
<svg version="1.0" xmlns="http://www.w3.org/2000/svg"
 width="1480.000000pt" height="986.000000pt" viewBox="0 0 1480.000000 986.000000"
 preserveAspectRatio="xMidYMid meet">

<g transform="translate(0.000000,986.000000) scale(0.100000,-0.100000)"
fill="#000000" stroke="none">
<path d="M0 4930 l0 -4930 7400 0 7400 0 0 4930 0 4930 -7400 0 -7400 0 0
-4930z m12435 2458 c-6 -125 -55 -1500 -55 -1537 0 -20 -5 -21 -127 -21 -71 0
-134 4 -141 9 -10 6 -11 52 -3 237 19 422 34 924 30 929 -3 2 -479 -469 -1058
-1047 l-1053 -1051 -458 458 c-253 253 -461 457 -464 455 -3 -3 -218 -218
-479 -478 -260 -260 -477 -469 -481 -465 -4 5 -6 3 -4 -3 4 -16 -139 -157
-151 -149 -6 3 -9 0 -6 -8 3 -7 -5 -19 -19 -27 -14 -7 -22 -18 -19 -23 4 -6 0
-8 -11 -4 -9 4 -15 3 -12 -1 3 -5 -33 -46 -80 -93 -72 -72 -89 -84 -119 -84
-19 -1 -32 2 -29 5 3 3 19 5 35 5 16 0 28 5 26 10 -1 6 -10 9 -19 8 -13 -2
-18 5 -19 25 l-2 27 -4 -27 c-8 -49 -22 -30 -26 35 -2 34 -4 9 -4 -56 0 -65
-5 -123 -11 -129 -10 -10 -381 -12 -391 -2 -17 16 44 24 197 24 l172 0 -2 128
-2 127 -6 -90 -6 -90 -4 70 c-4 59 -6 65 -13 40 -16 -58 -17 -59 -29 -47 -8 8
-8 15 0 24 8 10 3 13 -26 13 -26 0 -43 -7 -57 -24 l-21 -23 1 24 c0 33 24 63
39 48 5 -5 16 -10 23 -10 11 0 11 4 1 19 -10 16 -9 23 6 40 10 11 23 18 29 14
5 -3 7 -1 4 5 -4 6 331 350 757 779 l765 768 460 -460 461 -460 955 955 c525
525 953 956 951 958 -2 1 -262 -7 -578 -19 -316 -12 -582 -19 -592 -16 -14 5
-16 25 -16 140 l0 134 203 8 c686 26 1202 42 1335 44 l152 1 -5 -122z m-6493
-610 c2 -134 1 -273 0 -310 l-4 -68 -390 0 -390 0 29 -37 c75 -98 135 -215
173 -340 12 -40 27 -74 33 -75 25 -3 161 -6 350 -7 l197 -1 0 -275 c0 -177 4
-275 10 -275 6 0 10 3 10 8 0 14 82 92 98 92 9 0 -13 -28 -51 -64 -37 -36 -67
-72 -67 -80 0 -9 -6 -16 -14 -16 -7 0 -26 -10 -42 -22 -16 -12 -23 -15 -16 -8
6 8 12 18 12 22 0 4 -116 8 -259 8 l-258 0 -23 -62 c-147 -410 -499 -692
-1038 -833 -112 -29 -370 -75 -424 -75 l-37 0 54 -51 c30 -28 52 -55 49 -60
-3 -5 2 -9 10 -9 9 0 23 -15 31 -32 8 -18 13 -25 10 -15 -2 9 -3 17 -2 17 2 0
25 -23 52 -52 28 -29 41 -45 30 -37 -18 13 -19 13 -6 -3 7 -10 17 -16 21 -13
4 3 400 -388 879 -868 l871 -872 -427 -3 -426 -2 -223 227 c-123 125 -220 232
-217 238 4 5 2 6 -2 2 -11 -10 -136 113 -128 126 3 6 2 7 -4 4 -5 -3 -58 43
-118 103 -59 61 -102 110 -95 110 8 0 4 10 -11 26 -17 18 -19 23 -6 18 12 -4
17 -1 17 11 0 9 5 13 10 10 6 -3 10 -1 10 5 0 6 -7 13 -15 16 -8 4 -15 17 -15
29 0 27 -17 41 -44 36 -12 -2 -17 2 -14 11 3 7 13 12 22 12 23 -2 20 11 -6 24
-18 8 -19 11 -5 11 15 1 15 3 -4 22 -12 12 -19 29 -16 40 3 10 1 19 -4 19 -5
0 -9 23 -9 50 0 28 -7 67 -15 87 -8 19 -15 51 -15 71 0 24 -7 42 -25 58 -14
13 -25 32 -25 42 0 11 -7 35 -15 55 -8 19 -11 37 -8 40 3 4 0 13 -7 22 -7 8
-10 26 -8 39 4 19 1 23 -10 18 -11 -4 -14 -1 -9 12 7 17 -2 32 -35 64 -21 19
-23 38 -5 46 10 5 10 7 0 12 -8 3 -13 26 -13 59 0 33 -5 55 -12 58 -10 4 -10
6 -1 6 6 1 15 -3 18 -9 3 -5 11 -10 17 -10 7 0 6 6 -2 15 -15 18 1 20 18 3 7
-7 12 -10 12 -7 0 3 -11 16 -26 30 -18 17 -23 19 -18 6 4 -11 1 -17 -9 -17
-24 0 -36 20 -46 79 -1 3 -7 -3 -14 -13 -12 -16 -13 -16 -13 1 0 25 30 26 52
2 9 -10 22 -19 28 -19 5 0 -7 18 -29 39 -21 22 -43 39 -49 38 -6 -1 -11 5 -11
13 0 8 9 16 20 18 58 9 67 13 56 26 -7 8 -27 17 -45 20 -26 5 -37 14 -45 36
-9 27 -8 30 12 31 20 1 19 2 -6 13 l-28 13 23 15 23 16 -22 24 c-19 20 -23 36
-23 94 -1 46 -6 76 -16 89 -15 19 -15 19 -9 -6 8 -34 -7 -44 -30 -19 -16 18
-16 20 -2 20 20 0 23 36 5 43 -9 3 -7 7 6 12 11 5 21 3 27 -6 6 -10 9 -10 9
-1 0 15 -36 52 -52 52 -7 0 -4 7 7 16 17 13 18 16 5 24 -8 5 -19 10 -25 10 -5
0 -2 5 9 11 15 9 16 13 5 21 -9 6 -2 7 21 3 l35 -5 -30 13 c-30 13 -29 14 39
21 269 28 569 122 723 227 55 38 153 128 153 140 0 5 -195 9 -432 10 -366 1
-656 10 -583 18 l20 2 -20 9 c-11 5 -14 9 -7 9 14 1 9 32 -14 94 -8 20 -10 37
-6 37 4 0 8 18 9 40 2 39 -5 47 -39 41 -5 0 -8 13 -8 29 0 23 4 30 20 30 16 0
20 7 20 30 0 17 -4 30 -10 30 -5 0 -10 18 -10 40 0 34 -3 40 -21 40 -15 0 -19
4 -15 16 3 9 6 27 6 40 0 14 4 23 9 20 5 -3 15 1 22 10 11 14 10 15 -11 12
-17 -2 -26 2 -28 13 -2 13 4 16 25 13 15 -2 20 -1 11 2 -29 9 -20 21 20 28 20
3 272 6 560 6 287 0 522 4 522 8 0 4 -25 38 -55 75 -132 160 -361 282 -667
357 -110 27 -140 30 -298 32 -96 0 -153 4 -126 7 27 3 51 12 54 19 2 6 -2 12
-10 12 -10 0 -9 3 2 11 12 8 12 12 2 16 -10 4 -10 10 3 29 8 13 20 59 27 101
7 46 20 88 31 103 17 22 17 25 3 28 -13 3 -16 17 -16 70 1 51 3 63 11 49 5 -9
7 -22 4 -27 -3 -6 -1 -10 4 -10 14 0 14 66 0 92 -8 14 -8 23 0 31 6 6 11 19
11 28 0 10 6 20 13 22 6 3 1 7 -13 8 -52 7 608 15 1407 17 l832 2 3 -242z
m5168 144 c0 -14 -1129 -1136 -1137 -1129 -7 8 1115 1137 1129 1137 5 0 8 -3
8 -8z m-2420 -189 c0 -5 -226 -234 -502 -510 -426 -427 -528 -523 -528 -500 0
7 1016 1017 1023 1017 4 0 7 -3 7 -7z m-232 -808 c-5 -26 -1082 -1098 -1092
-1088 -5 6 1082 1103 1092 1103 2 0 2 -7 0 -15z m1972 -1091 c-380 -379 -696
-691 -703 -693 -14 -5 33 49 82 93 18 17 56 56 85 85 206 219 1211 1220 1218
1213 5 -5 -293 -310 -682 -698z m-4580 443 c0 -2 -17 -19 -37 -38 l-38 -34 34
38 c33 34 41 42 41 34z m403 -34 c-5 -11 -3 -14 6 -9 15 10 75 -51 77 -77 1
-9 -2 -14 -7 -11 -5 3 -9 11 -9 19 0 7 -7 15 -15 19 -9 3 -15 0 -15 -9 0 -8 5
-15 11 -15 5 0 8 -4 4 -10 -3 -5 -14 -2 -24 8 -16 15 -16 18 -3 29 13 10 13
15 2 29 -13 14 -15 14 -24 -8 -5 -12 -8 -28 -7 -35 1 -6 -3 -14 -7 -17 -14 -8
-12 48 2 57 6 5 0 5 -13 2 -16 -5 -21 -4 -17 4 5 7 1 8 -9 4 -13 -4 -14 -8 -4
-13 7 -5 13 -22 14 -39 1 -16 -2 -28 -7 -25 -5 4 -7 13 -4 21 4 9 -1 21 -11
29 -17 12 -16 14 11 43 29 30 60 32 49 4z m-83 -47 c0 -2 -8 -10 -17 -17 -16
-13 -17 -12 -4 4 13 16 21 21 21 13z m20 -20 c0 -3 -4 -8 -10 -11 -5 -3 -10
-1 -10 4 0 6 5 11 10 11 6 0 10 -2 10 -4z m-52 -41 c-3 -3 -9 2 -12 12 -6 14
-5 15 5 6 7 -7 10 -15 7 -18z m247 -15 c16 -17 16 -20 3 -15 -9 4 -19 13 -22
21 -7 19 -2 18 19 -6z m-293 -25 c3 -14 1 -25 -3 -25 -5 0 -9 -29 -9 -65 l0
-65 255 0 255 0 16 -25 c14 -21 15 -50 11 -212 -6 -216 -4 -202 -17 -183 -5 8
-10 100 -10 206 l0 191 -255 2 c-141 1 -255 -1 -254 -6 6 -35 -3 -193 -11
-193 -6 0 -10 40 -10 100 l0 100 -91 0 c-57 0 -88 4 -84 10 3 6 44 10 91 10
l84 0 0 71 c0 49 -3 68 -11 63 -6 -3 -3 5 6 20 22 33 31 33 37 1z m-2375 -161
c-3 -3 -12 -4 -19 -1 -8 3 -5 6 6 6 11 1 17 -2 13 -5z m5197 -215 c-181 -181
-350 -337 -264 -244 132 144 415 423 423 418 5 -3 -66 -82 -159 -174z m-1785
-328 c11 -11 18 -28 16 -38 -2 -10 -4 -97 -4 -193 -1 -108 -5 -170 -10 -161
-5 8 -10 96 -11 195 0 99 -3 183 -6 186 -3 3 -90 6 -192 7 -103 1 -190 2 -194
3 -5 0 -8 5 -8 10 0 6 72 10 195 10 179 0 197 -2 214 -19z m-3234 -1 c3 -5 -1
-10 -9 -10 -9 0 -16 5 -16 10 0 6 4 10 9 10 6 0 13 -4 16 -10z m5805 -280
c-11 -11 -23 -20 -27 -20 -3 0 2 9 12 20 10 11 22 20 27 20 4 0 -1 -9 -12 -20z
m-45 -50 c-3 -5 -12 -10 -18 -10 -7 0 -6 4 3 10 19 12 23 12 15 0z m-65 -64
c0 -2 -7 -7 -16 -10 -8 -3 -12 -2 -9 4 6 10 25 14 25 6z m-40 -30 c0 -2 -8
-10 -17 -17 -16 -13 -17 -12 -4 4 13 16 21 21 21 13z m-41 -49 c-2 -1 -13 -9
-24 -17 -19 -14 -19 -14 -6 3 7 9 18 17 24 17 6 0 8 -1 6 -3z m-54 -57 c-3 -5
-11 -10 -16 -10 -6 0 -7 5 -4 10 3 6 11 10 16 10 6 0 7 -4 4 -10z m-5375 -261
c0 -11 -4 -17 -10 -14 -5 3 -10 13 -10 21 0 8 5 14 10 14 6 0 10 -9 10 -21z
m70 -314 c19 -22 8 -25 -12 -3 -10 10 -14 18 -9 18 5 0 14 -7 21 -15z m5 -63
c-3 -3 0 -11 6 -19 17 -20 5 -16 -14 5 -15 16 -15 19 -2 19 8 0 13 -3 10 -5z"/>
<path d="M7620 4696 c0 -2 7 -9 15 -16 9 -7 15 -8 15 -2 0 5 -7 12 -15 16 -8
3 -15 4 -15 2z"/>
<path d="M7682 4680 c0 -14 2 -19 5 -12 2 6 2 18 0 25 -3 6 -5 1 -5 -13z"/>
<path d="M7560 4644 c0 -15 22 -44 30 -39 6 4 5 14 -3 25 -11 19 -27 27 -27
14z"/>
<path d="M7502 4598 c-14 -14 -16 -28 -3 -28 9 0 24 30 18 36 -2 2 -9 -2 -15
-8z"/>
<path d="M7785 4560 l20 -23 -22 7 c-15 5 -23 3 -23 -4 0 -6 5 -8 12 -4 8 5 9
2 4 -11 -7 -18 -6 -18 14 0 26 23 25 32 -2 46 l-23 12 20 -23z"/>
<path d="M7741 4544 c0 -11 3 -14 6 -6 3 7 2 16 -1 19 -3 4 -6 -2 -5 -13z"/>
<path d="M3600 5810 c0 -5 5 -10 10 -10 6 0 10 5 10 10 0 6 -4 10 -10 10 -5 0
-10 -4 -10 -10z"/>
<path d="M4006 4121 c-4 -5 -2 -12 3 -15 5 -4 12 -2 15 3 4 5 2 12 -3 15 -5 4
-12 2 -15 -3z"/>
<path d="M4210 3210 c-13 -8 -13 -11 -1 -19 7 -5 10 -14 7 -20 -4 -7 -2 -10 5
-9 7 2 15 -6 17 -17 6 -32 34 -58 44 -43 6 10 10 10 17 -1 7 -10 9 -7 8 11 -1
16 -7 24 -14 21 -7 -3 -16 2 -19 11 -3 9 -10 14 -14 11 -5 -3 -16 5 -24 17
-19 26 -21 42 -4 32 7 -4 8 -3 4 4 -9 14 -7 14 -26 2z m70 -92 c0 -6 -6 -5
-15 2 -8 7 -15 14 -15 16 0 2 7 1 15 -2 8 -4 15 -11 15 -16z"/>
<path d="M4315 3050 c3 -5 8 -10 11 -10 2 0 4 5 4 10 0 6 -5 10 -11 10 -5 0
-7 -4 -4 -10z"/>
<path d="M4353 3043 c-15 -5 -17 -23 -4 -23 5 0 11 7 15 15 3 8 4 15 3 14 -1
0 -8 -3 -14 -6z"/>
</g>
</svg>
